<?xml version="1.0" encoding="UTF-8"?>
<svg version="1.1" xmlns="http://www.w3.org/2000/svg" width="128" height="128">
<path d="M0 0 C0.74836624 -0.0049649 1.49673248 -0.00992981 2.26777649 -0.01504517 C4.74534017 -0.02965692 7.22283975 -0.03646842 9.70043945 -0.04199219 C11.425766 -0.04774606 13.15109254 -0.05350376 14.87641907 -0.05926514 C18.49704282 -0.06977342 22.11764439 -0.07561669 25.73828125 -0.07910156 C30.3639153 -0.08457485 34.98925329 -0.10857852 39.61479473 -0.13707352 C43.1811456 -0.1557583 46.74742613 -0.16090868 50.31382179 -0.16243744 C52.01816228 -0.16545317 53.72250184 -0.17344503 55.42679405 -0.18662262 C57.81990981 -0.20379982 60.21231528 -0.20177442 62.60546875 -0.1953125 C63.64929214 -0.20913467 63.64929214 -0.20913467 64.71420288 -0.22323608 C71.49373597 -0.16628556 77.7020739 1.7859295 82.8762207 6.28613281 C83.50012695 6.80433594 84.1240332 7.32253906 84.7668457 7.85644531 C91.83252545 16.61432567 91.23156768 26.49156284 91.19262695 37.18847656 C91.19787056 38.94528023 91.20414973 40.70208108 91.21141052 42.45887756 C91.2217819 46.12954008 91.21730063 49.79981414 91.20263672 53.47045898 C91.18545583 58.15209912 91.20895227 62.83251104 91.24412632 67.51401424 C91.26618803 71.13883956 91.26463771 74.76337495 91.25636101 78.38824654 C91.25554624 80.11325998 91.26231795 81.83829574 91.27713203 83.56324577 C91.35193612 93.84860751 91.26608432 103.08239143 83.87086487 111.05308533 C78.01522121 116.64084067 71.681091 118.61840177 63.70654297 118.54931641 C62.94783905 118.55457336 62.18913513 118.55983032 61.40744019 118.56524658 C58.91895477 118.57836565 56.43111799 118.56973673 53.94262695 118.55957031 C52.20059589 118.56159359 50.45856565 118.56450714 48.71653748 118.56826782 C45.07266138 118.57268039 41.42900654 118.5662954 37.78515625 118.55224609 C33.13044109 118.53516755 28.47624547 118.54499364 23.82154942 118.56296349 C20.22600949 118.57384113 16.63059126 118.57033656 13.03504753 118.56258011 C11.31955846 118.56058843 9.6040581 118.56300085 7.88858223 118.57001877 C5.48385792 118.57769774 3.07995651 118.56593961 0.67529297 118.54931641 C-0.02365585 118.5553891 -0.72260468 118.56146179 -1.44273376 118.56771851 C-8.19800437 118.48186201 -14.42997393 116.53955463 -19.6237793 112.09863281 C-20.24768555 111.59203125 -20.8715918 111.08542969 -21.5144043 110.56347656 C-28.47141807 101.57489784 -27.94990656 91.20458948 -27.86987305 80.40332031 C-27.87002831 78.68799783 -27.87152188 76.972675 -27.87428284 75.25735474 C-27.87566074 71.67840899 -27.86320904 68.09986697 -27.84033203 64.52099609 C-27.811906 59.95041597 -27.81470457 55.38050345 -27.82742214 50.80987358 C-27.83439933 47.27351244 -27.82656753 43.73730373 -27.81416512 40.20096207 C-27.80967345 38.51618155 -27.80929367 36.83138454 -27.81323051 35.14660263 C-27.81616405 32.78766434 -27.79953676 30.42962497 -27.77783203 28.07080078 C-27.78233368 27.38591583 -27.78683533 26.70103088 -27.79147339 25.99539185 C-27.67764347 18.49245511 -25.16718927 12.22272923 -20.1237793 6.70019531 C-14.27795171 1.55899873 -7.58763098 0.01201397 0 0 Z " fill="#23354B" transform="translate(33.373779296875,4.8388671875)"/>
<path d="M0 0 C0.10807419 3.16117006 -0.00123858 5.98279926 -1 9 C-2.96772449 10.49201087 -4.76016756 11.25167272 -7.08984375 12.05078125 C-9.57296861 13.28472673 -9.89547263 14.50220989 -11 17 C-12.00435972 18.28016835 -13.04690261 19.53128122 -14.125 20.75 C-14.93324219 21.67039062 -14.93324219 21.67039062 -15.7578125 22.609375 C-16.16773438 23.06828125 -16.57765625 23.5271875 -17 24 C-16.16855469 23.14535156 -15.33710938 22.29070313 -14.48046875 21.41015625 C-13.38307952 20.29400823 -12.28540855 19.17813718 -11.1875 18.0625 C-10.64029297 17.49853516 -10.09308594 16.93457031 -9.52929688 16.35351562 C-5.33984375 12.11328125 -5.33984375 12.11328125 -2 11 C-1.875 17.625 -1.875 17.625 -3 21 C-5.79519415 22.91869802 -8.6978755 24.57863851 -11.62890625 26.28125 C-12.41136719 26.8484375 -13.19382812 27.415625 -14 28 C-14 28.99 -14 29.98 -14 31 C-12.35 30.01 -10.7 29.02 -9 28 C-10.60630825 32.24292532 -12.5768162 36.27025107 -14.625 40.3125 C-14.94984375 40.95767578 -15.2746875 41.60285156 -15.609375 42.26757812 C-16.40441956 43.84597541 -17.20195634 45.42311694 -18 47 C-17.33613281 46.05898437 -16.67226563 45.11796875 -15.98828125 44.1484375 C-15.0964835 42.8905333 -14.2045491 41.63272597 -13.3125 40.375 C-12.65991211 39.44880859 -12.65991211 39.44880859 -11.99414062 38.50390625 C-9.15913365 34.51389643 -6.28285488 30.63518854 -3 27 C-2.34 27 -1.68 27 -1 27 C-1.06960937 28.03447266 -1.06960937 28.03447266 -1.140625 29.08984375 C-1.42566644 36.51110114 -0.73286289 42.91780502 4.4609375 48.59765625 C9.89923576 53.33201235 14.10915268 54.44706294 21.16796875 54.32421875 C25.29257245 53.85202274 28.67636685 52.49064238 32 50 C32.66 49.01 33.32 48.02 34 47 C30.11411144 46.60788553 30.11411144 46.60788553 27.9375 48.5 C22.70374014 51.17255823 16.98683894 50.83166473 11.390625 49.2734375 C8.00762877 47.91360568 5.54618347 46.5632517 3 43.9375 C1.16652027 38.55165328 0.18149138 32.45552585 2 27 C2.66 27 3.32 27 4 27 C4.33 25.68 4.66 24.36 5 23 C7.875 22.375 7.875 22.375 11 22 C13.6855594 24.6855594 14.06049974 27.37621328 15 31 C13.68 31 12.36 31 11 31 C11.61022291 36.79012933 11.61022291 36.79012933 14 42 C18.08261196 44.04130598 22.70336653 43.01097258 27 42 C27 41.34 27 40.68 27 40 C31.12751449 40.60698743 34.3321148 42.03810791 38 44 C41.08233329 36.48681262 40.67951544 29.5919604 38 22 C37.34765649 20.65960074 36.68385087 19.3246019 36 18 C42.89289443 17.76808953 49.3766551 17.88977151 56 20 C57 21 57 21 57.375 23.75 C57.15409046 33.53026787 51.97931904 42.16374194 45.3359375 48.97265625 C42.13019873 51.75489441 38.98421237 53.58202113 35 55 C34.10667969 55.35578125 33.21335938 55.7115625 32.29296875 56.078125 C28.26304837 57.20631149 24.66114252 57.29988739 20.5 57.25 C19.32655029 57.24419922 19.32655029 57.24419922 18.12939453 57.23828125 C10.97075754 57.133542 4.04919562 56.26930854 -3 55 C10.51967034 58.02035188 24.84981603 60.83444944 38 55 C41 54 41 54 42 54 C42.474375 53.505 42.94875 53.01 43.4375 52.5 C45 51 45 51 47 51 C47.495 50.01 47.495 50.01 48 49 C50.5625 48.375 50.5625 48.375 53 48 C52.34 47.34 51.68 46.68 51 46 C52.65 45.34 54.3 44.68 56 44 C56 43.01 56 42.02 56 41 C56.759352 39.55414896 57.57982122 38.13977977 58.4375 36.75 C60.74154342 32.77439567 61.4709037 29.58550124 62 25 C63.58361252 21.12894717 64.71184001 20.15717818 68.4375 18.125 C72 17 72 17 74.375 17.125 C76 18 76 18 77 21 C78.11880369 37.70092569 79.1415209 54.93266042 71 70 C70.45085937 71.17820312 69.90171875 72.35640625 69.3359375 73.5703125 C65.47818665 81.76090668 65.47818665 81.76090668 63 83 C60.56562457 83.11357098 58.15917093 83.16779421 55.72387695 83.17700195 C54.97405045 83.18357315 54.22422394 83.19014435 53.45167542 83.19691467 C50.96387637 83.21666465 48.47613783 83.22831587 45.98828125 83.23828125 C45.13831259 83.24235678 44.28834393 83.2464323 43.41261864 83.25063133 C38.91123064 83.27150234 34.4098732 83.28579787 29.90844727 83.29516602 C25.26578334 83.30621443 20.62360083 83.34059299 15.98110676 83.38033772 C12.40621572 83.40652984 8.83143873 83.41486029 5.25646019 83.41844749 C3.54569445 83.42330914 1.83493366 83.43491112 0.12426186 83.45348549 C-2.27650989 83.47792614 -4.67604531 83.47690311 -7.0769043 83.4699707 C-8.12847717 83.48918579 -8.12847717 83.48918579 -9.20129395 83.50878906 C-15.17254604 83.4462536 -19.31345628 81.45907892 -23.70703125 77.4375 C-26.91795953 73.26215864 -29.19664176 70.08739167 -29.38574219 64.76074219 C-29.41786804 63.93177429 -29.4499939 63.1028064 -29.48309326 62.24871826 C-29.57335166 58.42530354 -29.6542995 54.6025582 -29.70019531 50.77832031 C-29.73305297 48.78044614 -29.78728603 46.78279407 -29.86425781 44.78613281 C-30.3806161 31.29346625 -29.3121318 21.05111596 -20.36047363 10.44885254 C-17.30226222 7.191974 -14.09940095 5.18539105 -10 3.5 C-9.25105469 3.14292969 -8.50210938 2.78585938 -7.73046875 2.41796875 C-2.54910714 0 -2.54910714 0 0 0 Z " fill="#F3E9DD" transform="translate(41,34)"/>
<path d="M0 0 C0.99 0.495 0.99 0.495 2 1 C0.68 2.65 -0.64 4.3 -2 6 C1.63 6 5.26 6 9 6 C9 6.66 9 7.32 9 8 C12.465 7.505 12.465 7.505 16 7 C16 7.66 16 8.32 16 9 C20.29 9.33 24.58 9.66 29 10 C26 13 26 13 22.9375 14.375 C19.91582007 15.72604107 19.91582007 15.72604107 18.6875 18.1875 C17.88803353 21.13837463 17.88803353 21.13837463 17.6875 24.8125 C17.27138177 29.11238835 15.45374698 31.87905806 12.9609375 35.3359375 C12.48527344 36.15964844 12.48527344 36.15964844 12 37 C12.33 37.66 12.66 38.32 13 39 C11.02 39.99 11.02 39.99 9 41 C9.33 41.66 9.66 42.32 10 43 C8.02 43.33 6.04 43.66 4 44 C4.33 44.99 4.66 45.98 5 47 C3.35 46.67 1.7 46.34 0 46 C-0.33 47.32 -0.66 48.64 -1 50 C-1.99 49.67 -2.98 49.34 -4 49 C-6.01723344 49.96476382 -8.01612292 50.96838392 -10 52 C-19.53777341 54.49679932 -30.22284587 53.4209228 -39.8125 51.625 C-40.48772705 51.49899414 -41.1629541 51.37298828 -41.85864258 51.24316406 C-45.13183001 50.57238437 -47.17880518 49.88079654 -50 48 C-48.98164062 48.144375 -47.96328125 48.28875 -46.9140625 48.4375 C-23.31107101 51.92112857 -23.31107101 51.92112857 -1.51171875 44.3046875 C4.16158545 39.7177607 7.30366225 34.71818607 10 28 C10.433125 26.948125 10.86625 25.89625 11.3125 24.8125 C12.12941798 21.47056282 12.13708262 18.42706539 12 15 C5.56986533 13.26044666 -0.34949576 12.75008544 -7 13 C-6.525625 13.721875 -6.05125 14.44375 -5.5625 15.1875 C-2.65961651 20.41269029 -2.38047135 26.11447781 -3 32 C-4.5 35.5625 -4.5 35.5625 -6 38 C-9.72433382 36.7874262 -13.37802806 35.49140021 -17 34 C-17 34.66 -17 35.32 -17 36 C-20.82257691 37.79885972 -23.7790775 38.36703674 -28 38 C-31.54956621 35.63362253 -32.39308058 33.90251859 -34 30 C-34.1875 27.125 -34.1875 27.125 -34 25 C-33.34 24.67 -32.68 24.34 -32 24 C-31.01 24.33 -30.02 24.66 -29 25 C-30.32 22.36 -31.64 19.72 -33 17 C-34.98 17.33 -36.96 17.66 -39 18 C-39.33 18.99 -39.66 19.98 -40 21 C-40.66 21 -41.32 21 -42 21 C-41.91249445 23.22988284 -41.80430939 25.45896005 -41.6875 27.6875 C-41.62949219 28.92886719 -41.57148437 30.17023438 -41.51171875 31.44921875 C-40.98164764 35.12734577 -40.26485143 37.08578557 -38 40 C-31.87823651 43.17019895 -25.84517482 43.98978936 -19 43 C-16.5488004 41.91319173 -15.05140202 40.77418553 -13 39 C-11.68 39.66 -10.36 40.32 -9 41 C-11.93593731 45.34518722 -14.90960328 47.76966426 -20 49 C-26.66702893 49.90552184 -31.76502543 49.50110855 -37.28125 45.48828125 C-41.70113464 41.66106296 -44.73896053 37.84663753 -46 32 C-46.51274363 24.02548726 -46.51274363 24.02548726 -45 21 C-45.66 21 -46.32 21 -47 21 C-47.35964844 21.82371094 -47.35964844 21.82371094 -47.7265625 22.6640625 C-49.30029822 25.55085379 -51.25610608 27.86189325 -53.375 30.375 C-56.50216733 34.13666505 -59.41894448 37.8478672 -62 42 C-62.33 41.34 -62.66 40.68 -63 40 C-62.28735352 38.30419922 -62.28735352 38.30419922 -61.12890625 36.3046875 C-60.51499023 35.23154297 -60.51499023 35.23154297 -59.88867188 34.13671875 C-59.45103516 33.39035156 -59.01339844 32.64398438 -58.5625 31.875 C-57.9118457 30.74384766 -57.9118457 30.74384766 -57.24804688 29.58984375 C-56.17251034 27.72242866 -55.08715861 25.86067303 -54 24 C-55.32 24.33 -56.64 24.66 -58 25 C-58.33 24.01 -58.66 23.02 -59 22 C-45.36959026 11.74023388 -30.90820509 6.36739934 -13.97973633 4.79492188 C-8.45124452 4.2215874 -4.73003556 2.7994088 0 0 Z " fill="#101827" transform="translate(85,40)"/>
<path d="M0 0 C6.89289443 -0.23191047 13.3766551 -0.11022849 20 2 C21 3 21 3 21.375 5.75 C21.15422849 15.52415673 15.98662475 24.17796217 9.328125 30.96875 C3.65967914 35.9143739 -1.58788308 37.47056308 -9 38 C-9 37.01 -9 36.02 -9 35 C-7 33.66666667 -5 32.33333333 -3 31 C-3 30.01 -3 29.02 -3 28 C-3.5775 28.28875 -4.155 28.5775 -4.75 28.875 C-5.4925 29.24625 -6.235 29.6175 -7 30 C-7.59941406 30.34546875 -8.19882813 30.6909375 -8.81640625 31.046875 C-13.71816032 33.18645996 -19.54698491 32.67833751 -24.61328125 31.27734375 C-27.99163189 29.91162753 -30.45504996 28.56197973 -33 25.9375 C-34.83347973 20.55165328 -35.81850862 14.45552585 -34 9 C-33.34 9 -32.68 9 -32 9 C-31.67 7.68 -31.34 6.36 -31 5 C-28.125 4.375 -28.125 4.375 -25 4 C-22.3144406 6.6855594 -21.93950026 9.37621328 -21 13 C-22.32 13 -23.64 13 -25 13 C-24.38977709 18.79012933 -24.38977709 18.79012933 -22 24 C-17.91738804 26.04130598 -13.29663347 25.01097258 -9 24 C-9 23.34 -9 22.68 -9 22 C-4.87248551 22.60698743 -1.6678852 24.03810791 2 26 C5.08233329 18.48681262 4.67951544 11.5919604 2 4 C1.34765649 2.65960074 0.68385087 1.3246019 0 0 Z " fill="#F1F4F7" transform="translate(77,52)"/>
<path d="M0 0 C1.66997696 3.14408694 3.33542365 6.29055094 5 9.4375 C5.47695312 10.33533203 5.95390625 11.23316406 6.4453125 12.15820312 C6.89648438 13.01220703 7.34765625 13.86621094 7.8125 14.74609375 C8.23144531 15.53685303 8.65039062 16.3276123 9.08203125 17.14233398 C10 19 10 19 10 20 C8.80008423 20.02187378 8.80008423 20.02187378 7.57592773 20.04418945 C-13.41076138 20.31677256 -13.41076138 20.31677256 -34 24 C-35.33320403 24.3338501 -36.66647877 24.66741917 -38 25 C-37.54554036 23.58208592 -37.08625056 22.16571954 -36.625 20.75 C-36.24214844 19.56664062 -36.24214844 19.56664062 -35.8515625 18.359375 C-33.70924835 12.42378901 -33.70924835 12.42378901 -30.75683594 10.65966797 C-29.84192383 10.27439941 -28.92701172 9.88913086 -27.984375 9.4921875 C-26.47810547 8.84830078 -26.47810547 8.84830078 -24.94140625 8.19140625 C-23.88824219 7.75699219 -22.83507812 7.32257812 -21.75 6.875 C-20.71230469 6.43285156 -19.67460938 5.99070312 -18.60546875 5.53515625 C-5.51173055 0 -5.51173055 0 0 0 Z " fill="#F0E4D9" transform="translate(84,16)"/>
<path d="M0 0 C2.54812276 2.7335371 4.31794626 5.67547025 6 9 C6.66 8.01 7.32 7.02 8 6 C9.55291593 12.01754924 9.92411933 17.80521659 7.5 23.5625 C7.005 24.366875 6.51 25.17125 6 26 C2.27566618 24.7874262 -1.37802806 23.49140021 -5 22 C-5 22.66 -5 23.32 -5 24 C-8.82257691 25.79885972 -11.7790775 26.36703674 -16 26 C-19.54956621 23.63362253 -20.39308058 21.90251859 -22 18 C-22.1875 15.125 -22.1875 15.125 -22 13 C-21.34 12.67 -20.68 12.34 -20 12 C-19.01 12.33 -18.02 12.66 -17 13 C-17.61996078 11.70590711 -18.24616353 10.41480327 -18.875 9.125 C-19.22304688 8.40570313 -19.57109375 7.68640625 -19.9296875 6.9453125 C-20.96557543 4.84864981 -20.96557543 4.84864981 -23 3 C-4.11225634 -1.51371399 -4.11225634 -1.51371399 0 0 Z " fill="#11304F" transform="translate(73,52)"/>
<path d="M0 0 C0.10807419 3.16117006 -0.00123858 5.98279926 -1 9 C-2.96772449 10.49201087 -4.76016756 11.25167272 -7.08984375 12.05078125 C-9.57296861 13.28472673 -9.89547263 14.50220989 -11 17 C-12.00435972 18.28016835 -13.04690261 19.53128122 -14.125 20.75 C-14.93324219 21.67039062 -14.93324219 21.67039062 -15.7578125 22.609375 C-16.16773438 23.06828125 -16.57765625 23.5271875 -17 24 C-16.16855469 23.14535156 -15.33710938 22.29070313 -14.48046875 21.41015625 C-13.38307952 20.29400823 -12.28540855 19.17813718 -11.1875 18.0625 C-10.64029297 17.49853516 -10.09308594 16.93457031 -9.52929688 16.35351562 C-5.33984375 12.11328125 -5.33984375 12.11328125 -2 11 C-1.875 17.625 -1.875 17.625 -3 21 C-5.50390625 22.82421875 -5.50390625 22.82421875 -8.5625 24.6875 C-9.57441406 25.31011719 -10.58632813 25.93273437 -11.62890625 26.57421875 C-12.41136719 27.04472656 -13.19382812 27.51523437 -14 28 C-13.76410156 28.58265625 -13.52820312 29.1653125 -13.28515625 29.765625 C-13 32 -13 32 -14.43359375 33.921875 C-15.09488281 34.52515625 -15.75617187 35.1284375 -16.4375 35.75 C-17.42556641 36.67039062 -17.42556641 36.67039062 -18.43359375 37.609375 C-19.20896484 38.29773438 -19.20896484 38.29773438 -20 39 C-20 35.48283697 -19.17554415 34.62878252 -17 32 C-17.8353125 32.680625 -17.8353125 32.680625 -18.6875 33.375 C-21 35 -21 35 -23.6875 36.0625 C-26.15938605 36.76803846 -26.15938605 36.76803846 -27 39 C-27.15495763 41.24974161 -27.25010928 43.50371536 -27.31640625 45.7578125 C-27.33718735 46.42086395 -27.35796844 47.08391541 -27.37937927 47.76705933 C-27.44479231 49.88626694 -27.50372105 52.005599 -27.5625 54.125 C-27.60569309 55.56121081 -27.64930764 56.99740902 -27.69335938 58.43359375 C-27.80046499 61.95559594 -27.90175575 65.47773825 -28 69 C-28.33 69 -28.66 69 -29 69 C-29.25041633 63.02699259 -29.43011832 57.05714684 -29.54931641 51.08007812 C-29.59908158 49.05479622 -29.66692534 47.02986346 -29.75439453 45.00585938 C-30.32575865 31.42755922 -29.41081021 21.11288143 -20.36248779 10.44482422 C-17.29825388 7.19541575 -14.09907308 5.18525626 -10 3.5 C-9.25105469 3.14292969 -8.50210938 2.78585938 -7.73046875 2.41796875 C-2.54910714 0 -2.54910714 0 0 0 Z " fill="#BCAEA7" transform="translate(41,34)"/>
<path d="M0 0 C2.5625 0.9375 2.5625 0.9375 4.375 3.875 C5.5625 6.9375 5.5625 6.9375 5.5625 8.9375 C4.2425 8.9375 2.9225 8.9375 1.5625 8.9375 C2.17272291 14.72762933 2.17272291 14.72762933 4.5625 19.9375 C8.37205639 21.84227819 11.96966321 21.11315535 15.9375 19.9375 C16.80375 19.6075 17.67 19.2775 18.5625 18.9375 C19.5525 19.9275 20.5425 20.9175 21.5625 21.9375 C20.61643822 24.30265445 19.9916321 25.66606678 17.80859375 27.046875 C11.97392464 29.36044814 5.27591662 28.55967906 -0.4375 26.25 C-4.10300036 24.35179445 -6.06406296 22.97197131 -7.4375 18.9375 C-8.94197761 9.45093284 -8.94197761 9.45093284 -7.4375 4.9375 C-6.7775 4.9375 -6.1175 4.9375 -5.4375 4.9375 C-5.31375 4.298125 -5.19 3.65875 -5.0625 3 C-4.85625 2.319375 -4.65 1.63875 -4.4375 0.9375 C-2.4375 -0.0625 -2.4375 -0.0625 0 0 Z " fill="#153858" transform="translate(50.4375,56.0625)"/>
<path d="M0 0 C0.72703125 0.00451172 1.4540625 0.00902344 2.203125 0.01367188 C3.96878681 0.02528807 5.7344053 0.04321559 7.5 0.0625 C0.95066629 7.18971609 -4.81307222 8.47683725 -14.0625 9.4375 C-22.05556419 10.37681064 -28.84965473 11.79749078 -36.234375 15.07421875 C-38.5 16.0625 -38.5 16.0625 -40.5 16.0625 C-38.14884673 8.28560843 -38.14884673 8.28560843 -35.5 5.0625 C-32.5185814 3.86924126 -29.46915785 3.35185268 -26.3125 2.8125 C-25.0740332 2.57273438 -25.0740332 2.57273438 -23.81054688 2.328125 C-15.85988294 0.82445333 -8.09845878 -0.09748145 0 0 Z " fill="#EBE0D5" transform="translate(80.5,36.9375)"/>
<path d="M0 0 C0.99 0 1.98 0 3 0 C4.94612816 3.96174718 6.88467202 7.92709259 8.81665039 11.89575195 C9.47316986 13.24178586 10.13165434 14.58686337 10.79223633 15.9309082 C14.34171447 23.15615174 17.71274114 30.25393003 20 38 C15.38 38 10.76 38 6 38 C5.73445313 36.32292969 5.46890625 34.64585938 5.1953125 32.91796875 C4.83860543 30.67446903 4.481831 28.43098001 4.125 26.1875 C3.86396484 24.53717773 3.86396484 24.53717773 3.59765625 22.85351562 C2.60118739 16.59790553 1.54173323 10.3618995 0.36279297 4.13793945 C0 2 0 2 0 0 Z " fill="#B8A9A1" transform="translate(95,11)"/>
<path d="M0 0 C2.56183865 1.30478739 2.82891166 2.52800664 3.76171875 5.2109375 C5.96848008 10.6757126 8.69490191 12.8599021 13.58984375 16.08203125 C16.90707941 17.35138163 20.14146185 17.17183228 23.63671875 17.0859375 C24.68279297 17.07240234 24.68279297 17.07240234 25.75 17.05859375 C27.46238833 17.03513638 29.17459879 16.99926854 30.88671875 16.9609375 C31.38171875 18.4459375 31.38171875 18.4459375 31.88671875 19.9609375 C2.7413993 20.54973183 2.7413993 20.54973183 -8.11328125 14.9609375 C-10.11328125 11.9609375 -10.11328125 11.9609375 -10.17578125 9.7109375 C-8.57163251 5.5590231 -4.88515612 -0.09029863 0 0 Z " fill="#F3F4F4" transform="translate(38.11328125,71.0390625)"/>
<path d="M0 0 C3.08444491 2.57037076 4.79123821 4.05521912 5.22265625 8.07421875 C4.98245717 11.24367486 4.38775056 13.52276854 2.375 16 C-0.99204026 17.41770116 -3.37940691 17.44463424 -7 17 C-9.875 15.4375 -9.875 15.4375 -12 13 C-12.8125 9.25 -12.8125 9.25 -13 6 C-12.34 5.67 -11.68 5.34 -11 5 C-10.01 5.33 -9.02 5.66 -8 6 C-8.33 4.35 -8.66 2.7 -9 1 C-5.82121306 -0.58939347 -3.5043228 -0.41576711 0 0 Z " fill="#0A1324" transform="translate(64,59)"/>
<path d="M0 0 C0.5775 0.268125 1.155 0.53625 1.75 0.8125 C3.51709826 6.11379477 3.05543974 11.81743527 3.10009766 17.36889648 C3.11648362 18.85343288 3.14353736 20.33789632 3.18212891 21.82202148 C3.45937727 32.56599845 2.10096372 40.91420498 -2.25 50.8125 C-3.52231005 46.60243706 -2.72043622 43.14877865 -1.8125 38.9375 C-1.51677533 37.5453987 -1.22631677 36.15216722 -0.94140625 34.7578125 C-0.80935791 34.14437988 -0.67730957 33.53094727 -0.54125977 32.89892578 C0.14391304 27.99072228 -0.29996161 23.90369346 -1.78125 19.1953125 C-2.09707031 18.17695312 -2.41289063 17.15859375 -2.73828125 16.109375 C-3.07214844 15.06265625 -3.40601562 14.0159375 -3.75 12.9375 C-4.08386719 11.86757813 -4.41773437 10.79765625 -4.76171875 9.6953125 C-5.58361622 7.06524061 -6.41323791 4.43787286 -7.25 1.8125 C-2.53125 -0.2109375 -2.53125 -0.2109375 0 0 Z " fill="#BCADA4" transform="translate(115.25,51.1875)"/>
<path d="M0 0 C0.10813186 3.162857 -0.00708582 5.97966944 -1 9 C-3.87973548 11.4113829 -7.20828567 13 -11 13 C-11.33 13.99 -11.66 14.98 -12 16 C-13.890625 17.38671875 -13.890625 17.38671875 -16.25 18.6875 C-17.40242188 19.34298828 -17.40242188 19.34298828 -18.578125 20.01171875 C-21.23695009 21.09669092 -23.15632325 21.18655326 -26 21 C-21.65764955 10.26222128 -15.79551823 6.35940018 -5.66796875 1.546875 C-2 0 -2 0 0 0 Z " fill="#B1A19B" transform="translate(41,34)"/>
<path d="M0 0 C0.99 1.485 0.99 1.485 2 3 C1.6390625 3.61488281 1.278125 4.22976562 0.90625 4.86328125 C0.4421875 5.67152344 -0.021875 6.47976562 -0.5 7.3125 C-0.9640625 8.11300781 -1.428125 8.91351563 -1.90625 9.73828125 C-3.21767886 12.0314118 -3.21767886 12.0314118 -3 15 C-5 16.6875 -5 16.6875 -7 18 C-6.505 18.99 -6.505 18.99 -6 20 C-8.97 20.495 -8.97 20.495 -12 21 C-11.505 22.485 -11.505 22.485 -11 24 C-12.65 23.67 -14.3 23.34 -16 23 C-16.33 24.32 -16.66 25.64 -17 27 C-17.99 26.67 -18.98 26.34 -20 26 C-22.01723344 26.96476382 -24.01612292 27.96838392 -26 29 C-35.53777341 31.49679932 -46.22284587 30.4209228 -55.8125 28.625 C-56.48772705 28.49899414 -57.1629541 28.37298828 -57.85864258 28.24316406 C-61.13183001 27.57238437 -63.17880518 26.88079654 -66 25 C-64.98164062 25.144375 -63.96328125 25.28875 -62.9140625 25.4375 C-39.10909175 29.08408377 -39.10909175 29.08408377 -17.40625 21.0234375 C-15.18092094 19.08683784 -13.06928226 17.10111738 -11 15 C-9.58272072 13.58272072 -8.11871368 12.21148066 -6.625 10.875 C-3.56012157 7.51822839 -1.8302874 4.12070291 0 0 Z " fill="#64676C" transform="translate(101,63)"/>
<path d="M0 0 C6.89289443 -0.23191047 13.3766551 -0.11022849 20 2 C21 3 21 3 21.1875 6.1875 C21.00651269 9.86757532 20.33113308 12.58897147 19 16 C18.54625 15.360625 18.0925 14.72125 17.625 14.0625 C13.60482179 10.90378855 9.00935114 11 4 11 C3.71125 9.9275 3.4225 8.855 3.125 7.75 C2.26399541 4.8799847 1.37563712 2.61255453 0 0 Z " fill="#B3C0C9" transform="translate(77,52)"/>
<path d="M0 0 C2.31 0 4.62 0 7 0 C7 4.95 7 9.9 7 15 C-4.625 19.875 -4.625 19.875 -8 21 C-6.48728707 16.28562282 -4.73227046 11.71041415 -2.875 7.125 C-2.59785156 6.43664062 -2.32070313 5.74828125 -2.03515625 5.0390625 C-1.35835767 3.35873499 -0.67940197 1.67927658 0 0 Z " fill="#B4A69F" transform="translate(36,11)"/>
<path d="M0 0 C4.68778281 1.64705882 4.68778281 1.64705882 6.4375 3.625 C8.00929198 5.27326717 8.00929198 5.27326717 10.8125 5.3125 C14.13569403 4.98669666 16.88754592 4.18569679 20 3 C20.99 3.99 21.98 4.98 23 6 C22.05597001 8.36007498 21.42681556 9.72786927 19.25390625 11.11328125 C13.81475972 13.25311879 7.13720589 12.79288356 1.8125 10.5 C0.884375 10.005 -0.04375 9.51 -1 9 C-1 8.01 -1 7.02 -1 6 C-1.66 6 -2.32 6 -3 6 C-2.42655063 3.13275314 -2.1385485 2.1385485 0 0 Z " fill="#60C4E6" transform="translate(49,72)"/>
<path d="M0 0 C8.25 0 16.5 0 25 0 C25.33 0.99 25.66 1.98 26 3 C24.30598958 3.4235026 22.61197917 3.84700521 20.91796875 4.27050781 C20.20253906 4.44936523 19.48710938 4.62822266 18.75 4.8125 C13.5 6.125 8.25 7.4375 3 8.75 C2.030625 8.99234375 1.06125 9.2346875 0.0625 9.484375 C-0.618125 9.65453125 -1.29875 9.8246875 -2 10 C-1.46019653 6.60694964 -0.83449189 3.33796756 0 0 Z " fill="#E7DED4" transform="translate(56,11)"/>
<path d="M0 0 C0.125 6.625 0.125 6.625 -1 10 C-3.50390625 11.82421875 -3.50390625 11.82421875 -6.5625 13.6875 C-7.57441406 14.31011719 -8.58632813 14.93273438 -9.62890625 15.57421875 C-10.80259766 16.27998047 -10.80259766 16.27998047 -12 17 C-11.76410156 17.58265625 -11.52820312 18.1653125 -11.28515625 18.765625 C-11 21 -11 21 -12.43359375 22.921875 C-13.09488281 23.52515625 -13.75617187 24.1284375 -14.4375 24.75 C-15.09621094 25.36359375 -15.75492188 25.9771875 -16.43359375 26.609375 C-16.95050781 27.06828125 -17.46742187 27.5271875 -18 28 C-18 24.48283697 -17.17554415 23.62878252 -15 21 C-15.598125 21.515625 -16.19625 22.03125 -16.8125 22.5625 C-17.534375 23.036875 -18.25625 23.51125 -19 24 C-19.99 23.67 -20.98 23.34 -22 23 C-18.6773461 18.29576149 -15.55460779 14.56982772 -11 11 C-10.54625 10.21625 -10.0925 9.4325 -9.625 8.625 C-7.93696467 5.8981737 -3.58020803 0 0 0 Z " fill="#D5C8BE" transform="translate(39,45)"/>
<path d="M0 0 C1.66997696 3.14408694 3.33542365 6.29055094 5 9.4375 C5.47695312 10.33533203 5.95390625 11.23316406 6.4453125 12.15820312 C6.89648438 13.01220703 7.34765625 13.86621094 7.8125 14.74609375 C8.23144531 15.53685303 8.65039062 16.3276123 9.08203125 17.14233398 C10 19 10 19 10 20 C5.05 20 0.1 20 -5 20 C-5 19.67 -5 19.34 -5 19 C-1.535 18.505 -1.535 18.505 2 18 C0.76311165 15.70034837 -0.48842071 13.41105325 -1.75 11.125 C-2.09804687 10.47402344 -2.44609375 9.82304687 -2.8046875 9.15234375 C-4.73868444 5.67831221 -6.10007535 3.2472732 -10 2 C-6.38026598 0.68373308 -3.90432869 0 0 0 Z " fill="#B9AAA3" transform="translate(84,16)"/>
<path d="M0 0 C0.33 1.98 0.66 3.96 1 6 C-1.57858967 7.34326531 -4.16217421 8.67474665 -6.75 10 C-7.47960938 10.3815625 -8.20921875 10.763125 -8.9609375 11.15625 C-9.66992188 11.5171875 -10.37890625 11.878125 -11.109375 12.25 C-11.75874023 12.58515625 -12.40810547 12.9203125 -13.07714844 13.265625 C-15 14 -15 14 -19 14 C-16.45508982 5.81993157 -16.45508982 5.81993157 -12.5390625 3.61328125 C-11.57742187 3.18402344 -10.61578125 2.75476563 -9.625 2.3125 C-8.66851562 1.87550781 -7.71203125 1.43851563 -6.7265625 0.98828125 C-4 0 -4 0 0 0 Z " fill="#0D1524" transform="translate(42,27)"/>
<path d="M0 0 C1.32 0.66 2.64 1.32 4 2 C1.07905794 6.32299425 -1.90926553 8.820213 -7 10 C-16.54916067 10.72541966 -16.54916067 10.72541966 -20 9 C-20 7.68 -20 6.36 -20 5 C-21.32 4.34 -22.64 3.68 -24 3 C-21 2 -21 2 -19.1484375 2.9140625 C-18.43945312 3.27242188 -17.73046875 3.63078125 -17 4 C-11.85036903 4.66898529 -6.75327357 4.98877839 -2.3125 2 C-1.549375 1.34 -0.78625 0.68 0 0 Z " fill="#1E415B" transform="translate(72,79)"/>
<path d="M0 0 C0.66 0 1.32 0 2 0 C1.92983735 3.39969912 1.73031077 6.67302872 1 10 C-1.125 11.75 -1.125 11.75 -4 13 C-5.2979379 14.02921369 -6.56790749 15.09437919 -7.8125 16.1875 C-8.41707031 16.71730469 -9.02164062 17.24710938 -9.64453125 17.79296875 C-10.09183594 18.19128906 -10.53914063 18.58960937 -11 19 C-11.66 18.34 -12.32 17.68 -13 17 C-11.58435393 15.10339726 -10.16751545 13.20770483 -8.75 11.3125 C-7.56664062 9.72888672 -7.56664062 9.72888672 -6.359375 8.11328125 C-5.58078125 7.08589844 -4.8021875 6.05851562 -4 5 C-3.28328125 4.04480469 -2.5665625 3.08960937 -1.828125 2.10546875 C-1.22484375 1.41066406 -0.6215625 0.71585938 0 0 Z " fill="#B1BCC3" transform="translate(38,61)"/>
<path d="M0 0 C0.721875 0.103125 1.44375 0.20625 2.1875 0.3125 C3.6481285 2.95988916 4.1875 4.20698334 4.1875 7.3125 C-0.73987019 9.28344808 -4.59270872 9.4924928 -9.8125 9.3125 C-7.9542153 4.75125573 -5.1211191 0.56901323 0 0 Z " fill="#BBADA6" transform="translate(92.8125,36.6875)"/>
<path d="M0 0 C0 0.99 0 1.98 0 3 C-2.0762657 4.03513247 -4.16131479 5.05266211 -6.25 6.0625 C-7.41015625 6.63097656 -8.5703125 7.19945312 -9.765625 7.78515625 C-12.90644333 8.96485975 -13.99353048 9.30230734 -17 8 C-16.34 5.69 -15.68 3.38 -15 1 C-14.34 1.33 -13.68 1.66 -13 2 C-10.70503656 1.32657443 -8.51828981 0.45860073 -6.2890625 -0.40625 C-3.76198007 -1.06173896 -2.43574151 -0.84528016 0 0 Z " fill="#152438" transform="translate(67,19)"/>
<path d="M0 0 C2.96135422 3.24338796 4.02386845 6.71104415 5.3046875 10.81640625 C6.01149143 13.14098239 6.01149143 13.14098239 7.1875 15.875 C8 18 8 18 8 21 C6.02 21 4.04 21 2 21 C1.66034526 18.81347261 1.32857523 16.62571975 1 14.4375 C0.814375 13.21933594 0.62875 12.00117187 0.4375 10.74609375 C0.01444923 7.12372152 -0.07501425 3.64287954 0 0 Z " fill="#D4CBC2" transform="translate(99,28)"/>
<path d="M0 0 C4.75 0.875 4.75 0.875 7 2 C7 4.31 7 6.62 7 9 C4.36 8.01 1.72 7.02 -1 6 C-1 6.66 -1 7.32 -1 8 C-4.82257691 9.79885972 -7.7790775 10.36703674 -12 10 C-12.99 9.34 -13.98 8.68 -15 8 C-14.67 7.34 -14.34 6.68 -14 6 C-13.34 6.33 -12.68 6.66 -12 7 C-6.67032792 7.34092041 -6.67032792 7.34092041 -2 5 C-0.79549696 2.44816596 -0.79549696 2.44816596 0 0 Z " fill="#226595" transform="translate(69,68)"/>
<path d="M0 0 C0.66 0.99 1.32 1.98 2 3 C1.6390625 3.61488281 1.278125 4.22976562 0.90625 4.86328125 C0.4421875 5.67152344 -0.021875 6.47976562 -0.5 7.3125 C-0.9640625 8.11300781 -1.428125 8.91351563 -1.90625 9.73828125 C-3.21767886 12.0314118 -3.21767886 12.0314118 -3 15 C-5 16.6875 -5 16.6875 -7 18 C-6.67 18.66 -6.34 19.32 -6 20 C-7.98 20.33 -9.96 20.66 -12 21 C-11.67 21.99 -11.34 22.98 -11 24 C-12.32 23.67 -13.64 23.34 -15 23 C-13.63378087 19.95279558 -12.05402742 17.84012319 -9.75 15.4375 C-5.55633322 10.786662 -2.79551359 5.57054724 0 0 Z " fill="#918885" transform="translate(101,63)"/>
<path d="M0 0 C2.5625 0.9375 2.5625 0.9375 4.375 3.875 C5.5625 6.9375 5.5625 6.9375 5.5625 8.9375 C-2.1875 8.1875 -2.1875 8.1875 -4.4375 5.9375 C-4.5625 3.3125 -4.5625 3.3125 -4.4375 0.9375 C-2.4375 -0.0625 -2.4375 -0.0625 0 0 Z " fill="#ECEDEE" transform="translate(50.4375,56.0625)"/>
<path d="M0 0 C0.33 3.63 0.66 7.26 1 11 C0.01 11 -0.98 11 -2 11 C-2 8.36 -2 5.72 -2 3 C-2.49628906 3.43570313 -2.99257813 3.87140625 -3.50390625 4.3203125 C-7.97819019 8.24273979 -12.47564042 12.13544286 -17 16 C-15.07712966 11.70621187 -12.37521131 9.22846299 -9 6 C-9.33 5.34 -9.66 4.68 -10 4 C-8.71086513 3.32845067 -7.41859796 2.66291141 -6.125 2 C-5.40570313 1.62875 -4.68640625 1.2575 -3.9453125 0.875 C-2 0 -2 0 0 0 Z " fill="#494A50" transform="translate(40,43)"/>
<path d="M0 0 C0.66 0.66 1.32 1.32 2 2 C1.3503125 2.61488281 0.700625 3.22976562 0.03125 3.86328125 C-0.8040625 4.67152344 -1.639375 5.47976562 -2.5 6.3125 C-3.75296875 7.51326172 -3.75296875 7.51326172 -5.03125 8.73828125 C-7.32828283 10.87737482 -7.32828283 10.87737482 -7 14 C-7.99 13.67 -8.98 13.34 -10 13 C-10.94875 13.495 -11.8975 13.99 -12.875 14.5 C-16.29015776 16.13927573 -17.48255435 16.13799712 -21 15 C-18.5067231 13.3378154 -16.55260795 12.38429444 -13.8125 11.3125 C-8.49017309 9.00412581 -2.66737907 5.33475815 0 0 Z " fill="#4F5159" transform="translate(91,76)"/>
<path d="M0 0 C0.99 0.33 1.98 0.66 3 1 C3.144375 2.11375 3.28875 3.2275 3.4375 4.375 C3.78372035 7.82142047 3.78372035 7.82142047 5 10 C3.35 9.67 1.7 9.34 0 9 C-1.485 11.475 -1.485 11.475 -3 14 C-2.34 14 -1.68 14 -1 14 C-1.33 14.99 -1.66 15.98 -2 17 C-4.39286884 14.60713116 -4.32050616 13.90552906 -4.375 10.625 C-4.31959502 7.17326969 -4.26304952 6.3205916 -2 3.5625 C-1.34 3.046875 -0.68 2.53125 0 2 C0 1.34 0 0.68 0 0 Z " fill="#1A5280" transform="translate(49,64)"/>
<path d="M0 0 C0.33 0.66 0.66 1.32 1 2 C6.28 2 11.56 2 17 2 C13.06679266 3.96660367 9.5124724 4.83535483 5.25 5.625 C4.55261719 5.7590625 3.85523438 5.893125 3.13671875 6.03125 C1.42548068 6.35943264 -0.28713171 6.68043502 -2 7 C-1.34 4.69 -0.68 2.38 0 0 Z " fill="#C0B3AA" transform="translate(48,34)"/>
<path d="M0 0 C0.99 0.33 1.98 0.66 3 1 C3.05437607 2.58294782 3.09296271 4.16644256 3.125 5.75 C3.14820312 6.63171875 3.17140625 7.5134375 3.1953125 8.421875 C2.99139502 11.1135858 2.36551721 12.69904974 1 15 C0.34 15 -0.32 15 -1 15 C-0.67 10.05 -0.34 5.1 0 0 Z " fill="#0B1729" transform="translate(78,63)"/>
<path d="M0 0 C0.66 1.98 1.32 3.96 2 6 C1 7 1 7 -0.84765625 7.09765625 C-2.8984375 7.06510417 -4.94921875 7.03255208 -7 7 C-3.86206897 0 -3.86206897 0 0 0 Z " fill="#DDD3C9" transform="translate(90,39)"/>
<path d="M0 0 C0.33 0.99 0.66 1.98 1 3 C-3.95 4.485 -3.95 4.485 -9 6 C-9.33 4.68 -9.66 3.36 -10 2 C-6.38026598 0.68373308 -3.90432869 0 0 0 Z " fill="#253345" transform="translate(76,15)"/>
<path d="M0 0 C0.33 0.66 0.66 1.32 1 2 C-4.94 2 -10.88 2 -17 2 C-13.63627298 0.31813649 -12.04185342 -0.31754613 -8.5 -0.6875 C-7.37078125 -0.81705078 -7.37078125 -0.81705078 -6.21875 -0.94921875 C-3.90985368 -1.00206321 -2.17043482 -0.78535471 0 0 Z " fill="#DBDFE1" transform="translate(69,89)"/>
<path d="M0 0 C1.32 0 2.64 0 4 0 C2.63855967 5.19822672 0.53269829 8.09543873 -3 12 C-4 10 -4 10 -3.22265625 7.6171875 C-2.83980469 6.71226563 -2.45695312 5.80734375 -2.0625 4.875 C-1.68222656 3.96492188 -1.30195312 3.05484375 -0.91015625 2.1171875 C-0.60980469 1.41851562 -0.30945313 0.71984375 0 0 Z " fill="#242936" transform="translate(96,65)"/>
<path d="M0 0 C0.99 0.99 1.98 1.98 3 3 C2.04578192 4.14926266 1.08647955 5.29430541 0.125 6.4375 C-0.40867187 7.07558594 -0.94234375 7.71367188 -1.4921875 8.37109375 C-3 10 -3 10 -5 11 C-3.79618552 8.50638429 -2.54571278 6.31856917 -1 4 C-2.65 4.66 -4.3 5.32 -6 6 C-4 4 -2 2 0 0 Z " fill="#8D8987" transform="translate(25,62)"/>
<path d="M0 0 C0.99 0.33 1.98 0.66 3 1 C0.11658466 5.21422242 -2.04303419 6.76075855 -7 8 C-7.33 7.01 -7.66 6.02 -8 5 C-7.05125 4.54625 -6.1025 4.0925 -5.125 3.625 C-1.99686321 2.19761746 -1.99686321 2.19761746 0 0 Z " fill="#111E2D" transform="translate(73,80)"/>
<path d="M0 0 C0.66 0.99 1.32 1.98 2 3 C1.21516341 4.48280196 0.42190666 5.9611498 -0.375 7.4375 C-0.81585938 8.26121094 -1.25671875 9.08492187 -1.7109375 9.93359375 C-3 12 -3 12 -5 13 C-4.39254603 8.14036821 -2.27241033 4.2594482 0 0 Z " fill="#9E9693" transform="translate(101,63)"/>
<path d="M0 0 C1.32 0.66 2.64 1.32 4 2 C3.67 2.66 3.34 3.32 3 4 C2.34 4 1.68 4 1 4 C0.67 5.65 0.34 7.3 0 9 C-0.33 8.01 -0.66 7.02 -1 6 C-1.66 6 -2.32 6 -3 6 C-2.42655063 3.13275314 -2.1385485 2.1385485 0 0 Z " fill="#409AC6" transform="translate(49,72)"/>
<path d="M0 0 C0.66 0 1.32 0 2 0 C3.25664978 2.90600261 4 4.79604584 4 8 C2.35 7.67 0.7 7.34 -1 7 C-1.04254356 5.00045254 -1.04080783 2.99958364 -1 1 C-0.67 0.67 -0.34 0.34 0 0 Z " fill="#EDE3D7" transform="translate(103,41)"/>
<path d="M0 0 C2.86724686 0.57344937 3.8614515 0.8614515 6 3 C8.66242821 3.46290221 8.66242821 3.46290221 11.625 3.625 C13.12933594 3.73714844 13.12933594 3.73714844 14.6640625 3.8515625 C15.43492188 3.90054688 16.20578125 3.94953125 17 4 C17 4.33 17 4.66 17 5 C13.37 5 9.74 5 6 5 C6 5.66 6 6.32 6 7 C5.34 7 4.68 7 4 7 C4 5.68 4 4.36 4 3 C2.68 2.34 1.36 1.68 0 1 C0 0.67 0 0.34 0 0 Z " fill="#163D5E" transform="translate(48,81)"/>
<path d="M0 0 C-1.60149886 0.67305018 -3.20631029 1.33822227 -4.8125 2 C-6.15248047 2.556875 -6.15248047 2.556875 -7.51953125 3.125 C-10 4 -10 4 -13 4 C-12.67 3.01 -12.34 2.02 -12 1 C-10.29296875 0.234375 -10.29296875 0.234375 -8.1875 -0.25 C-7.50042969 -0.42015625 -6.81335937 -0.5903125 -6.10546875 -0.765625 C-3.80500179 -1.02170666 -2.19370273 -0.69015367 0 0 Z " fill="#ADA29D" transform="translate(57,41)"/>
<path d="M0 0 C0.66 0.33 1.32 0.66 2 1 C1.8125 2.875 1.8125 2.875 1 5 C-1.5625 6.25 -1.5625 6.25 -4 7 C-4.33 6.01 -4.66 5.02 -5 4 C-3.35 2.68 -1.7 1.36 0 0 Z " fill="#2A2E38" transform="translate(31,58)"/>
<path d="M0 0 C0.33 0 0.66 0 1 0 C1 2.97 1 5.94 1 9 C-0.32 9.33 -1.64 9.66 -3 10 C-2.01 6.7 -1.02 3.4 0 0 Z " fill="#E1D4C7" transform="translate(38,18)"/>
<path d="M0 0 C0.66 0 1.32 0 2 0 C3.4606285 2.64738916 4 3.89448334 4 7 C2.68 7 1.36 7 0 7 C0 4.69 0 2.38 0 0 Z " fill="#E6DDD2" transform="translate(93,37)"/>
<path d="M0 0 C2.31 0 4.62 0 7 0 C7.33 0.99 7.66 1.98 8 3 C5.69 3.33 3.38 3.66 1 4 C0.67 2.68 0.34 1.36 0 0 Z " fill="#AEA099" transform="translate(74,11)"/>
<path d="M0 0 C0.33 0.99 0.66 1.98 1 3 C-0.98 3 -2.96 3 -5 3 C-5 2.34 -5 1.68 -5 1 C-5.99 0.67 -6.98 0.34 -8 0 C-4.99727245 -0.96516243 -2.95784231 -1.22393475 0 0 Z " fill="#6C6D71" transform="translate(99,45)"/>
<path d="M0 0 C2.64 0.66 5.28 1.32 8 2 C8 2.33 8 2.66 8 3 C5.03 3.66 2.06 4.32 -1 5 C-0.67 3.35 -0.34 1.7 0 0 Z " fill="#AC9E97" transform="translate(47,36)"/>
<path d="M0 0 C0.99 0 1.98 0 3 0 C4.0326802 2.78823655 4.04509293 3.8677274 3.0625 6.75 C2.711875 7.4925 2.36125 8.235 2 9 C0.14223235 5.86501708 -0.20140476 3.62528568 0 0 Z " fill="#968C89" transform="translate(95,11)"/>
<path d="M0 0 C0.66 0.99 1.32 1.98 2 3 C0.02 5.64 -1.96 8.28 -4 11 C-4.33 10.34 -4.66 9.68 -5 9 C-4.00390625 6.8359375 -4.00390625 6.8359375 -2.5625 4.375 C-2.08941406 3.55773437 -1.61632812 2.74046875 -1.12890625 1.8984375 C-0.75636719 1.27195312 -0.38382813 0.64546875 0 0 Z " fill="#42444D" transform="translate(27,71)"/>
<path d="M0 0 C0.33 0 0.66 0 1 0 C1.33 2.97 1.66 5.94 2 9 C1.01 9.33 0.02 9.66 -1 10 C-1.33 8.35 -1.66 6.7 -2 5 C-1.34 5 -0.68 5 0 5 C0 3.35 0 1.7 0 0 Z " fill="#122136" transform="translate(42,68)"/>
<path d="M0 0 C0.66 0.66 1.32 1.32 2 2 C1.8125 4 1.8125 4 1 6 C0.01 6.66 -0.98 7.32 -2 8 C-1.125 2.25 -1.125 2.25 0 0 Z " fill="#191F2D" transform="translate(30,65)"/>
</svg>
